<?xml version="1.0" encoding="UTF-8"?>
<svg width="724px" height="385px" viewBox="0 0 724 385" version="1.1" xmlns="http://www.w3.org/2000/svg" xmlns:xlink="http://www.w3.org/1999/xlink">
    <!-- Generator: Sketch 42 (36781) - http://www.bohemiancoding.com/sketch -->
    <title>logo</title>
    <desc>Created with Sketch.</desc>
    <defs></defs>
    <g id="Page-1" stroke="none" stroke-width="1" fill="none" fill-rule="evenodd">
        <g id="logo">
            <rect id="Background" fill="#000000" x="60" y="60" width="606" height="249"></rect>
            <path d="M724.004,192.607 L723.768,192.607 C720.995,195.149 692.332,222.032 692.332,247.701 C692.332,274.674 716.898,305.213 686.316,335.795 C647.546,374.565 619.17,351.621 533.295,351.621 C445.195,351.621 362.016,385 362.016,385 L362.007,259.433 C362.795667,260.427 363.598333,261.464333 364.415,262.545 C377.752,280.212 381.752,307.25 381.752,307.25 C381.752,307.25 387.089,280.545 399.089,262.545 C411.089,244.545 422.069,239.345 425.795,234.785 C427.154999,233.121216 428.41265,231.376334 429.561,229.56 L429.561,263.798 C429.561,266.642 429.306,266.898 428.032,266.898 C427.013,266.898 426.503,266.38 426.503,264.312 L426.503,255.004 L424.465,255.004 L422.172,277.76 C424.72,277.76 429.306,280.346 430.58,282.414 C432.588695,280.754657 435.109598,279.841337 437.715,279.829 C439.361179,279.81321 440.998201,280.075567 442.557,280.605 C443.781934,280.760428 444.888211,281.415075 445.614,282.414 C446.634,279.57 450.201,277.502 453.004,277.502 L449.437,255.782 L447.398,255.782 L447.398,264.315 C447.398,266.901 446.889,267.159 445.614,267.159 C444.339,267.159 443.576,266.642 443.576,263.798 L443.576,213.636 C443.576,202.001 445.36,190.107 447.398,187.262 C445.795278,186.047348 444.929228,184.094298 445.105,182.091 C445.073274,180.165555 445.806141,178.306057 447.143,176.92 C446.124,175.627 443.576,170.714 443.576,158.303 L443.576,130.895 L445.105,130.895 L448.163,162.44 C449.182,172.524 449.182,175.11 448.417,176.661 C449.946,178.213 451.217,180.023 451.217,182.091 C451.274997,184.072934 450.43182,185.974403 448.924,187.262 C449.943,188.814 450.963,191.662 452.746,207.689 L460.391,277.502 C461.919,277.502 464.977,279.829 466.251,282.414 C467.27,279.829 469.819,277.502 471.602,277.502 L479.502,205.102 C480.776,194.502 481.795,189.071 483.324,187.261 C481.54,186.486 480.524,183.641 480.524,181.573 C480.661724,179.528321 481.808223,177.68635 483.582,176.66 C483.072,175.109 482.817,168.386 483.582,162.181 L487.149,130.894 L488.423,130.894 L488.423,157.785 C488.423,168.645 486.13,175.367 484.856,176.919 C486.894,178.212 487.149,180.539 487.149,182.09 C487.085836,184.046186 486.263395,185.900892 484.856,187.261 C486.384,188.813 488.678,194.761 488.423,209.498 L488.423,261.728 C488.423,265.607 487.659,267.158 486.384,267.158 C485.365,267.158 484.601,266.382 484.601,263.797 L484.601,255.781 L482.817,255.781 L480.524,277.242 C483.324,277.242 488.168,280.086 488.933,282.413 C491.226,280.604 495.813,279.828 499.89,279.828 C502.02234,279.861153 504.150223,280.033855 506.26,280.345 C508.044,280.862 509.827,281.379 510.846,282.413 C511.356,279.313 515.178,277.501 517.981,277.501 L515.181,255.523 L513.398,255.523 L513.398,264.831 C513.453117,265.389473 513.257204,265.943558 512.863293,266.343264 C512.469383,266.74297 511.918218,266.946955 511.359,266.9 C510.085,266.9 509.575,266.382 509.575,264.572 L509.575,210.792 C509.575,193.209 512.375,188.555 514.417,187.262 C512.63519,186.120931 511.50046,184.202132 511.359,182.091 C511.359,180.281 512.124,177.954 513.652,176.92 C512.124,175.886 509.575,171.49 509.575,157.269 L509.575,104.78 C509.575,101.936 510.085,100.126 511.104,100.126 C512.378,100.126 512.633,101.16 512.633,103.487 L512.633,110.727 L514.417,110.727 L516.452,88.49 C513.652,88.49 509.827,86.163 509.063,84.095 C507.024,85.646 501.418,86.68 498.106,86.68 C496.214675,86.6267252 494.334842,86.3668482 492.5,85.905 C490.827068,85.4739184 489.204386,84.8672146 487.659,84.095 C486.384,85.646 481.543,87.715 478.23,87.715 L470.33,163.474 L468.802,163.474 L461.158,87.715 C457.591,87.715 453.004,85.905 451.73,84.095 C448.388708,85.7104683 444.740284,86.5918867 441.03,86.68 C439.050998,86.6768321 437.08081,86.4163142 435.169,85.905 C433.575127,85.4811515 432.035829,84.8737549 430.582,84.095 C429.563,85.646 424.982,88.49 421.919,88.49 L423.703,110.21 L425.996,110.21 L425.996,103.229 C425.996,100.643 426.76,99.35 428.034,99.35 C429.054,99.35 429.563,100.126 429.563,105.297 L429.563,157.527 C429.69125,162.074424 429.271903,166.620761 428.314,171.068 C421.487793,161.241037 411.544999,154.005301 400.095,150.532 C395.428708,155.497393 388.90449,158.293926 382.090722,158.249331 C375.276955,158.204736 368.7899,155.323046 364.189,150.297 C363.455667,150.507 362.728333,150.732 362.007,150.972 L362.018,3.97903932e-13 C362.018,3.97903932e-13 445.197,33.379 533.297,33.379 C619.172,33.379 647.548,10.435 686.318,49.205 C716.9,79.787 692.334,110.326 692.334,137.299 C692.334,162.968 720.997,189.851 723.77,192.393 L724.006,192.393 L723.888,192.5 L724.004,192.607 Z M587.018,256.299 L584.979,256.299 L584.979,264.315 C584.979,265.608 584.215,267.415 583.196,267.415 C581.922,267.415 581.157,266.122 581.157,264.053 L577.08,208.203 C576.316,196.826 578.099,190.103 579.88,187.777 C577.929731,186.642427 576.683745,184.600258 576.567,182.347 C576.71402,180.169822 577.963736,178.218863 579.88,177.175 C576.822,174.848 574.529,174.075 573,153.904 L567.652,88.49 C565.596164,87.8733577 564.035791,86.1912783 563.575,84.095 C562.046,85.646 557.46,86.68 553.892,86.68 C551.915278,86.6445932 549.948988,86.3845907 548.031,85.905 C546.248,85.388 544.464,84.87 543.7,84.095 C543.29833,86.3120379 541.579008,88.0563642 539.368,88.49 L533.762,153.907 C532.488,170.714 529.94,174.076 527.137,177.178 C528.634473,178.606408 529.54338,180.543365 529.685,182.608 C529.501028,184.643213 528.488588,186.513334 526.885,187.78 C528.669,190.624 530.707,194.761 529.685,207.948 L525.863,264.315 C525.863,265.349 525.608,267.159 524.079,267.159 C522.55,267.159 522.041,266.125 522.041,264.315 L522.041,256.299 L520.257,256.299 L518.728,277.76 C521.372931,278.152584 523.60731,279.92682 524.589,282.414 C526.565975,280.700564 529.107305,279.779715 531.723,279.829 C533.178276,279.888066 534.626697,280.060927 536.055,280.346 C537.476641,280.718264 538.787644,281.427619 539.877,282.414 C540.77568,279.946848 543.112349,278.297505 545.738,278.277 L545.738,255.777 L543.952,255.777 L543.443,264.827 C543.188,266.12 542.424,267.671 541.404,267.671 C540.384,267.671 539.621,266.378 539.621,264.31 L541.404,237.678 C541.404,234.833 542.933,232.248 545.481,232.248 L553.635,232.248 C556.435,232.248 557.967,235.092 558.477,237.678 L560.26,263.793 C560.515,265.603 560.26,267.413 559.241,267.413 C558.222,267.413 557.712,266.12 557.458,265.086 L556.693,256.812 L554.909,256.812 L555.419,278.012 C557.967,278.012 562.044,279.822 562.809,282.407 C565.102,280.598 569.689,279.822 573.256,279.822 C575.218264,279.87669 577.175463,280.049335 579.117,280.339 C580.9,280.856 582.939,281.373 583.958,282.407 C584.594684,279.890395 586.728423,278.034588 589.309,277.753 L587.018,256.299 Z M656.318,107.624 C656.318,98.057 647.909,84.095 629.053,84.095 C625.532793,84.1267972 622.027739,84.5606093 618.606,85.388 C615.431174,86.1495503 612.18643,86.5824955 608.923,86.68 C607.123495,86.7771807 605.319614,86.6028943 603.572,86.163 C602.035386,85.9010768 600.614055,85.1801269 599.495,84.095 C598.475,86.939 594.653,89.783 591.086,89.783 L593.379,111.503 L594.908,111.503 L594.908,104.78 C594.908,101.936 595.672,100.38 596.946,100.38 C598.22,100.38 598.73,101.673 598.73,104 L598.73,160.885 C598.73,169.417 597.966,175.364 595.418,178.209 C597.166538,179.46615 598.207483,181.484468 598.218,183.638 C598.107967,185.691505 596.953923,187.545599 595.16,188.551 C597.198,190.878 598.727,193.723 598.727,205.875 L598.727,261.984 C598.727,265.345 598.218,266.379 596.689,266.379 C595.415,266.379 594.65,265.345 594.65,262.76 L594.65,254.75 L592.866,254.75 L590.318,277.25 C593.376,277.509 597.708,279.836 599.237,282.421 C601.275,280.612 605.098,279.836 609.175,279.836 C611.223278,279.857626 613.267166,280.030429 615.29,280.353 C616.883819,280.670417 618.372979,281.381308 619.622,282.421 C620.896,279.577 623.954,277.509 626.502,277.509 L624.973,255.272 L623.189,255.272 L623.189,264.322 C623.189,265.873 622.425,266.649 621.151,266.649 C620.131,266.649 619.367,266.132 619.367,263.288 L619.367,213.119 C619.367,196.829 620.386,190.107 629.559,190.107 C642.3,190.107 656.315,184.16 656.315,164.507 L656.315,107.624 L656.318,107.624 Z M627.018,176.661 C621.413,176.661 619.374,173.561 619.374,166.319 L619.374,107.366 C619.374,99.866 621.667,97.023 626.764,97.023 C632.115,97.023 635.172,99.867 635.172,107.366 L635.172,166.577 C635.165,173.3 632.362,176.661 627.011,176.661 L627.018,176.661 Z M549.818,213.378 C545.741,213.378 544.212,211.309 544.467,204.586 C544.977,197.864 547.525,189.848 549.567,187.78 C548.038,186.745 547.529,184.935 547.529,182.608 C547.480136,180.553086 548.31506,178.575923 549.822,177.178 C548.548,175.627 547.529,169.163 547.529,163.992 L548.803,138.911 C548.803,136.325 549.058,135.291 549.822,135.291 C550.586,135.291 551.096,136.325 551.096,138.911 L552.115,163.992 C552.115,167.092 551.861,175.627 550.587,177.178 C552.060354,178.599216 552.888748,180.560917 552.88,182.608 C553.10334,184.56389 552.338979,186.50272 550.841,187.78 C552.37,190.365 554.918,197.088 555.428,204.586 C555.931,211.568 554.402,213.378 549.815,213.378 L549.818,213.378 Z M346.231,159.43 C341.11304,163.410553 336.765047,168.292301 333.401,173.835 C332.36386,169.512539 331.890927,165.073952 331.994,160.63 L331.994,103.23 C331.994,98.575 333.268,97.283 335.561,97.283 C338.109,97.283 339.638,98.575 339.638,103.23 L339.638,127.018 C339.638,136.843 338.874,138.395 337.345,140.98 C343.952,143.611 345.966,146.694 346.231,159.43 Z M346.752,204.958 L346.752,191.058 L351.466,187.969 L362.001,185.146 L362.001,186.716 C358.856,187.865 355.818,189.169 355.818,189.169 L351.908,190.769 L351.908,193.762 L360.952,199.75 C360.952,199.75 361.352,199.944 362,200.256 L362,214.086 C354.609,210.895 348.323,208.043 348.323,208.043 L346.752,204.958 Z M368.752,183.338 L386.038,180.25 L401.752,180.25 L412.752,187.971 L412.752,203.413 L409.609,206.502 L403.323,212.679 L397.038,221.944 C392.641806,223.522662 387.865636,223.706696 383.361,222.471 C379.338,221.412 370.02,217.552 362.004,214.091 L362.004,200.26 C364.614,201.514 371.452,204.752 374.521,205.739 C378.354,206.971 392.609,208.732 392.609,208.732 L400.146,205.739 L403.161,199.753 L409.19,192.27 L410.698,189.277 L407.683,186.283 L400.146,181.794 L393.41,181.776 L385.496,181.776 C385.496,181.776 370.411,184.364 366.696,185.227 C365.102921,185.636145 363.533831,186.13358 361.996,186.717 L361.996,185.15 L368.752,183.338 Z M362.002,191.12 L362.002,191.241 L360.895,191.06 L362.002,191.12 Z M400.181,186.427 C400.181,186.427 394.838,191.986 393.895,195.692 C392.952,199.398 389.181,204.958 389.181,204.958 L389.181,195.692 L362.002,191.241 L362.002,191.12 L389.181,192.604 L400.181,186.427 Z M348.125,158.027 C348.509,147.817 350.455,143.704 356.711,140.983 C355.437,139.69 353.653,135.812 353.653,127.021 L353.653,88.75 C351.105,88.75 347.537,86.423 346.263,84.096 C344.989,85.647 341.931,86.681 339.383,86.681 C338.07075,86.6734119 336.772555,86.4101724 335.561,85.906 C334.591139,85.361143 333.65601,84.7566489 332.761,84.096 C330.978,85.647 326.646,86.681 320.785,86.681 C318.636498,86.7099067 316.493894,86.4492288 314.415,85.906 C312.877961,85.5553257 311.41263,84.9430798 310.083,84.096 C308.248523,85.7118323 305.902043,86.6274019 303.458,86.681 C302.14575,86.6734119 300.847555,86.4101724 299.636,85.906 C298.504083,85.5171236 297.463494,84.9012092 296.578,84.096 C295.304,86.423 291.736,88.75 289.188,88.75 L289.188,127.018 C289.188,135.809 287.405,139.687 286.13,140.98 C293.265,144.08 294.794,148.996 294.794,162.7 L296.578,162.7 C296.578,147.186 298.362,143.824 305.496,140.98 C303.967,138.395 303.203,136.843 303.203,127.018 L303.203,103.229 C303.203,98.574 304.732,97.282 307.28,97.282 C309.573,97.282 310.847,98.574 310.847,103.229 L310.847,160.629 C310.847,172.265 308.809,176.919 306.516,179.246 C308.198379,180.444267 309.232041,182.353218 309.316,184.417 C309.273591,186.360952 308.332542,188.175463 306.768,189.33 C309.062,191.398 310.845,197.345 310.845,207.171 L310.845,264.055 C310.845,265.348 310.845,266.9 309.826,266.9 C308.807,266.9 308.042,266.124 308.042,264.055 L308.042,257.333 L306.004,257.333 L302.946,277.759 C305.494,277.759 310.591,280.086 311.61,282.413 C313.648,280.604 318.235,279.828 321.547,279.828 C323.509889,279.871645 325.467782,280.044351 327.408,280.345 C329.447,280.862 331.485,281.379 332.508,282.413 C333.782,280.086 337.35,277.501 339.898,277.501 L338.114,256.816 L335.821,256.816 L335.821,263.797 C335.821,265.348 335.566,266.641 334.292,266.641 C333.018,266.641 331.999,265.865 331.999,263.541 L331.999,226.203 C333.621095,229.242284 335.535116,232.116498 337.714,234.785 C341.214,239.06 349.923,244.202 362.002,259.421 L361.988,385 C361.988,385 278.809,351.621 190.709,351.621 C104.834,351.621 76.458,374.565 37.688,335.795 C7.106,305.213 31.672,274.674 31.672,247.701 C31.672,222.032 3.009,195.149 0.236,192.607 L0,192.607 L0.118,192.5 L0,192.393 L0.236,192.393 C3.009,189.851 31.672,162.968 31.672,137.299 C31.672,110.326 7.106,79.787 37.688,49.205 C76.458,10.435 104.834,33.379 190.709,33.379 C278.809,33.379 361.988,0 361.988,0 L361.999,150.974 C357.052229,152.627119 352.377023,155.002463 348.125,158.023 L348.125,158.027 Z M156.725,266.905 C155.451,266.905 154.941,266.387 154.941,264.577 L154.941,210.792 C154.941,193.209 157.741,188.555 159.783,187.262 C158.00119,186.120931 156.86646,184.202132 156.725,182.091 C156.725,180.281 157.49,177.954 159.018,176.92 C157.49,175.886 154.941,171.49 154.941,157.269 L154.941,104.78 C154.941,101.936 155.451,100.126 156.47,100.126 C157.744,100.126 157.999,101.16 157.999,103.487 L157.999,110.727 L159.783,110.727 L161.821,88.49 C159.021,88.49 155.196,86.163 154.432,84.095 C152.393,85.646 146.787,86.68 143.475,86.68 C141.583675,86.6267252 139.703842,86.3668482 137.869,85.905 C136.196068,85.4739184 134.573386,84.8672146 133.028,84.095 C131.753,85.646 126.912,87.715 123.599,87.715 L115.699,163.474 L114.17,163.474 L106.526,87.715 C102.959,87.715 98.372,85.905 97.098,84.095 C93.756708,85.7104683 90.1082839,86.5918867 86.398,86.68 C84.4189978,86.6768321 82.4488101,86.4163142 80.537,85.905 C78.9431269,85.4811515 77.4038294,84.8737549 75.95,84.095 C74.931,85.646 70.35,88.49 67.287,88.49 L69.071,110.21 L71.364,110.21 L71.364,103.229 C71.364,100.643 72.128,99.35 73.402,99.35 C74.422,99.35 74.931,100.126 74.931,105.297 L74.931,157.527 C74.931,171.748 72.383,175.368 70.599,176.92 C72.893,178.471 73.399,179.764 73.399,182.091 C73.4756446,184.133979 72.5177059,186.078053 70.851,187.262 C72.635,189.072 74.928,192.434 74.928,207.431 L74.928,263.798 C74.928,266.642 74.673,266.898 73.399,266.898 C72.38,266.898 71.87,266.38 71.87,264.312 L71.87,255.004 L69.832,255.004 L67.536,277.76 C70.084,277.76 74.67,280.346 75.944,282.414 C77.9526946,280.754657 80.4735977,279.841337 83.079,279.829 C84.7251786,279.81321 86.3622012,280.075567 87.921,280.605 C89.1459335,280.760428 90.252211,281.415075 90.978,282.414 C91.998,279.57 95.565,277.502 98.368,277.502 L94.801,255.782 L92.762,255.782 L92.762,264.315 C92.762,266.901 92.253,267.159 90.978,267.159 C89.703,267.159 88.94,266.642 88.94,263.798 L88.94,213.636 C88.94,202.001 90.724,190.107 92.762,187.262 C91.1592781,186.047348 90.2932284,184.094298 90.469,182.091 C90.4372736,180.165555 91.170141,178.306057 92.507,176.92 C91.488,175.627 88.94,170.714 88.94,158.303 L88.94,130.895 L90.469,130.895 L93.527,162.44 C94.546,172.524 94.546,175.11 93.781,176.661 C95.31,178.213 96.581,180.023 96.581,182.091 C96.6389969,184.072934 95.7958197,185.974403 94.288,187.262 C95.307,188.814 96.327,191.662 98.11,207.689 L105.755,277.502 C107.283,277.502 110.341,279.829 111.615,282.414 C112.634,279.829 115.183,277.502 116.966,277.502 L124.866,205.102 C126.14,194.502 127.159,189.071 128.688,187.261 C126.904,186.486 125.888,183.641 125.888,181.573 C126.025724,179.528321 127.172223,177.68635 128.946,176.66 C128.436,175.109 128.181,168.386 128.946,162.181 L132.513,130.894 L133.787,130.894 L133.787,157.785 C133.787,168.645 131.494,175.367 130.22,176.919 C132.258,178.212 132.513,180.539 132.513,182.09 C132.449836,184.046186 131.627395,185.900892 130.22,187.261 C131.748,188.813 134.042,194.761 133.787,209.498 L133.787,261.728 C133.787,265.607 133.023,267.158 131.748,267.158 C130.729,267.158 129.965,266.382 129.965,263.797 L129.965,255.781 L128.181,255.781 L125.888,277.242 C128.688,277.242 133.532,280.086 134.297,282.413 C136.59,280.604 141.177,279.828 145.254,279.828 C147.38634,279.861153 149.514223,280.033855 151.624,280.345 C153.408,280.862 155.191,281.379 156.21,282.413 C156.72,279.313 160.542,277.501 163.345,277.501 L160.545,255.523 L158.762,255.523 L158.762,264.831 C158.817569,265.390203 158.621413,265.945133 158.226764,266.345193 C157.832115,266.745253 157.279908,266.948949 156.72,266.901 L156.725,266.905 Z M202.064,269.749 C196.713,269.749 194.675,267.939 194.675,261.733 L194.675,208.723 C194.675,194.244 194.675,190.882 198.752,190.882 C200.764391,191.059674 202.310299,192.740799 202.319,194.761 C202.403539,196.458743 202.052773,198.149923 201.3,199.674 C200.346149,201.789942 199.826235,204.075657 199.771,206.396 C199.771,211.05 203.083,213.636 206.141,213.119 C205.150193,211.86647 204.611418,210.316038 204.612,208.719 C204.612,206.909 206.141,205.358 209.454,202.255 C211.237,200.187 212.511,198.118 212.511,195.015 C212.511,191.395 210.728,188.81 208.18,186.741 L214.04,182.346 L208.434,177.433 C210.983717,175.916321 212.536083,173.159604 212.511,170.193 C212.295676,167.591047 211.220105,165.134862 209.454,163.212 C206.906,160.626 205.886,159.075 205.886,157.523 C205.828563,156.075353 206.182203,154.64103 206.906,153.386 C204.612,153.128 200.28,156.231 200.28,160.368 C200.325151,162.305204 200.669206,164.223816 201.3,166.056 C201.968669,167.332513 202.318297,168.751957 202.319,170.193 C202.319,171.744 201.045,174.072 199.261,174.072 C196.461,174.072 194.675,173.037 194.675,161.66 L194.675,110.21 C194.675,99.867 197.223,97.023 201.554,97.023 C206.396,97.023 208.434,100.902 208.434,109.951 L208.434,125.724 C208.434,134.256 207.67,137.618 205.886,139.945 C213.021,143.045 214.805,146.926 214.805,161.145 L216.843,161.145 C216.843,146.407 218.117,143.045 225.252,139.945 C223.723,137.101 223.468,132.705 223.468,125.982 L223.468,101.16 C223.468,93.66 224.233,90.042 225.762,88.749 C223.214,88.49 219.901,86.163 219.137,84.095 C217.353,85.388 214.805,86.68 213.021,86.68 C209.963,86.68 207.921,85.646 205.886,85.129 C203.566978,84.4573815 201.166275,84.1094243 198.752,84.095 C196.753604,84.1022575 194.771237,84.4519876 192.891,85.129 C189.946654,86.1749654 186.842551,86.699817 183.718,86.68 C181.654032,86.6932642 179.597425,86.4326575 177.602,85.905 C176.142766,85.5589721 174.76038,84.9452567 173.525,84.095 C171.733534,86.7639111 168.827774,88.4757347 165.625,88.749 L167.918,110.986 L169.952,110.986 L169.952,102.45 C170.207,100.381 170.716,99.606 171.99,99.606 C173.009,99.606 173.264,100.381 173.264,102.45 L173.264,155.973 C173.264,167.867 170.971,174.331 168.678,176.658 C170.461,178.21 171.735,180.278 171.735,181.83 C171.606362,183.944826 170.468901,185.868873 168.678,187.001 C170.461,189.587 173.264,195.792 173.264,212.601 L173.264,262.25 C173.264,265.095 172.755,266.129 171.481,266.129 C170.207,266.129 169.952,265.095 169.952,261.992 L169.952,253.718 L167.658,253.718 L165.365,276.989 C167.913,277.506 171.99,280.089 173.009,282.418 C174.693091,280.726282 176.993272,279.792996 179.38,279.833 C182.294672,279.89153 185.196432,280.237879 188.043,280.867 C190.591,281.384 193.143,282.418 196.197,282.418 C198.880889,282.393619 201.545175,281.957891 204.097,281.126 C206.387605,280.30521 208.798035,279.868333 211.231,279.833 C212.604417,279.861247 213.971004,280.034543 215.308,280.35 C216.535932,280.665952 217.730734,281.098934 218.876,281.643 C219.64,280.091 223.717,277.764 225.756,277.243 C223.972,275.175 223.462,273.623 223.462,260.954 L223.462,237.941 C223.462,231.477 224.482,226.564 226.262,224.241 C219.128,220.88 217.344,219.587 217.344,202.522 L215.56,202.522 C215.56,218.553 213.522,220.88 206.642,223.722 C208.171,226.822 208.425,231.996 208.425,237.943 L208.425,256.56 C208.429,267.935 206.901,269.75 202.059,269.75 L202.064,269.749 Z M276.452,88.49 C274.396514,87.872795 272.836378,86.1909709 272.375,84.095 C270.847,85.646 266.26,86.68 262.693,86.68 C260.716273,86.6446537 258.749976,86.3846502 256.832,85.905 C255.048,85.388 253.264,84.87 252.5,84.095 C252.098591,86.3121734 250.379147,88.0566234 248.168,88.49 L242.562,153.907 C241.288,170.714 238.74,174.076 235.937,177.178 C237.434473,178.606408 238.34338,180.543365 238.485,182.608 C238.301028,184.643213 237.288588,186.513334 235.685,187.78 C237.469,190.624 239.508,194.761 238.485,207.948 L234.663,264.315 C234.663,265.349 234.408,267.159 232.879,267.159 C231.35,267.159 230.841,266.125 230.841,264.315 L230.841,256.299 L229.057,256.299 L227.528,277.76 C230.173016,278.152388 232.407481,279.926692 233.389,282.414 C235.366428,280.700664 237.908025,279.779847 240.524,279.829 C241.979271,279.888123 243.427688,280.060983 244.856,280.346 C246.277641,280.718264 247.588644,281.427619 248.678,282.414 C249.576197,279.946479 251.913163,278.296926 254.539,278.277 L254.539,255.777 L252.752,255.777 L252.242,264.827 C251.987,266.12 251.223,267.671 250.204,267.671 C249.185,267.671 248.42,266.378 248.42,264.31 L250.204,237.678 C250.204,234.833 251.733,232.248 254.281,232.248 L262.435,232.248 C265.235,232.248 266.767,235.092 267.276,237.678 L269.06,263.793 C269.315,265.603 269.06,267.413 268.041,267.413 C267.022,267.413 266.512,266.12 266.257,265.086 L265.493,256.812 L263.709,256.812 L264.218,278.012 C266.767,278.012 270.844,279.822 271.608,282.407 C273.901,280.598 278.488,279.822 282.055,279.822 C284.017264,279.87669 285.974463,280.049335 287.916,280.339 C289.7,280.856 291.738,281.373 292.757,282.407 C293.393813,279.890081 295.528042,278.034195 298.109,277.753 L295.815,256.292 L293.777,256.292 L293.777,264.308 C293.777,265.601 293.012,267.408 291.993,267.408 C290.719,267.408 289.954,266.115 289.954,264.046 L285.877,208.196 C285.113,196.819 286.897,190.096 288.677,187.77 C286.726984,186.63532 285.481352,184.593115 285.365,182.34 C285.511628,180.162966 286.760989,178.211971 288.677,177.168 C285.62,174.841 283.326,174.068 281.798,153.897 L276.452,88.49 Z M258.617,213.378 C254.54,213.378 253.011,211.309 253.265,204.586 C253.775,197.864 256.323,189.848 258.365,187.78 C256.836,186.745 256.326,184.935 256.326,182.608 C256.277393,180.552932 257.112691,178.575744 258.62,177.178 C257.346,175.627 256.326,169.163 256.326,163.992 L257.6,138.911 C257.6,136.325 257.855,135.291 258.62,135.291 C259.385,135.291 259.894,136.325 259.894,138.911 L260.913,163.992 C260.913,167.092 260.658,175.627 259.384,177.178 C260.857354,178.599216 261.685748,180.560917 261.677,182.608 C261.900763,184.563738 261.136757,186.502618 259.639,187.78 C261.168,190.365 263.716,197.088 264.225,204.586 C264.732,211.568 263.203,213.378 258.617,213.378 Z" id="Form" fill="#FFFFFF" fill-rule="nonzero"></path>
        </g>
    </g>
</svg>