<?xml version="1.0" encoding="UTF-8"?>
<svg width="43px" height="48px" viewBox="0 0 43 48" version="1.1" xmlns="http://www.w3.org/2000/svg" xmlns:xlink="http://www.w3.org/1999/xlink">
    <!-- Generator: Sketch 42 (36781) - http://www.bohemiancoding.com/sketch -->
    <title>blue-marker copy 2</title>
    <desc>Created with Sketch.</desc>
    <defs>
        <linearGradient x1="50%" y1="-62.3682526%" x2="50%" y2="137.739806%" id="linearGradient-1">
            <stop stop-color="#FF579B" offset="0%"></stop>
            <stop stop-color="#DF3E4C" offset="36.6183272%"></stop>
            <stop stop-color="#9F031B" offset="100%"></stop>
        </linearGradient>
    </defs>
    <g id="Page-1" stroke="none" stroke-width="1" fill="none" fill-rule="evenodd">
        <g id="blue-marker-copy-2">
            <path d="M11.2234874,37.1480554 C9.271124,35.8845637 8.75367918,34.140848 10.1330458,32.213832 C12.1537822,29.3908036 17.6821786,26.9611648 23.9007118,25.875 C24.6748208,26.768391 26.5941199,27.3521722 29.2380437,27.3521722 C31.8819674,27.3521722 34.6370129,26.768391 36.6901098,25.8750003 C41.3536784,26.9611648 43.4037822,29.3908036 41.3830458,32.213832 C40.0214852,34.1159724 37.0674514,35.8395144 33.3828297,37.0938256 C24.8225639,39.5907477 17.8109659,43.359794 14.7925024,47.5766767 C14.723341,47.6732971 14.6566126,47.7696824 14.592302,47.8658228 C14.6383499,47.7893468 14.7038896,47.7004747 14.7676476,47.6114028 C17.7782623,43.4054851 16.1786851,39.6450779 11.2234874,37.1480554 Z" id="Combined-Shape" fill="#000000" opacity="0.5"></path>
            <path d="M4.55988296,24.309581 C1.74205529,21.4833334 0,17.583924 0,13.2776358 C0,7.67417551 2.94963558,2.75963948 7.38093288,0.00200161975 C9.5622254,2.2533081 12.6176974,3.65263585 16,3.65263585 C19.2324434,3.65263585 22.1663763,2.37456069 24.3240278,0.296181343 C28.5011122,3.10083486 31.25,7.86821678 31.25,13.2776358 C31.25,17.5123417 29.5653789,21.3535831 26.8297424,24.1677544 C20.0068401,29.7846028 15.6562495,38.295865 15.6562495,47.823262 C15.6562495,48.0406335 15.6585142,48.257476 15.6630212,48.4737673 L15.6504955,48.5011885 C15.6543273,48.3017158 15.6562519,48.1017762 15.6562519,47.901387 C15.6562519,38.4099374 11.3384295,29.9269692 4.55988296,24.309581 Z" id="Combined-Shape-Copy" fill="url(#linearGradient-1)"></path>
        </g>
    </g>
</svg>