<?xml version="1.0" encoding="UTF-8"?>
<svg width="43px" height="49px" viewBox="0 0 43 49" version="1.1" xmlns="http://www.w3.org/2000/svg" xmlns:xlink="http://www.w3.org/1999/xlink">
    <!-- Generator: Sketch 42 (36781) - http://www.bohemiancoding.com/sketch -->
    <title>blue-marker copy 2</title>
    <desc>Created with Sketch.</desc>
    <defs>
        <linearGradient x1="50%" y1="4.11750638%" x2="50%" y2="100%" id="linearGradient-1">
            <stop stop-color="#FF579B" offset="0%"></stop>
            <stop stop-color="#DF3E4C" offset="34.5503827%"></stop>
            <stop stop-color="#9F031B" offset="100%"></stop>
        </linearGradient>
    </defs>
    <g id="Page-1" stroke="none" stroke-width="1" fill="none" fill-rule="evenodd">
        <g id="blue-marker-copy-2">
            <path d="M11.2234874,38.1480554 C9.271124,36.8845637 8.75367918,35.140848 10.1330458,33.213832 C12.1537822,30.3908036 17.6821786,27.9611648 23.9007118,26.875 C24.6748208,27.768391 26.5941199,28.3521722 29.2380437,28.3521722 C31.8819674,28.3521722 34.6370129,27.768391 36.6901098,26.8750003 C41.3536784,27.9611648 43.4037822,30.3908036 41.3830458,33.213832 C40.0214852,35.1159724 37.0674514,36.8395144 33.3828297,38.0938256 C24.8225639,40.5907477 17.8109659,44.359794 14.7925024,48.5766767 C14.723341,48.6732971 14.6566126,48.7696824 14.592302,48.8658228 C14.6383499,48.7893468 14.7038896,48.7004747 14.7676476,48.6114028 C17.7782623,44.4054851 16.1786851,40.6450779 11.2234874,38.1480554 Z" id="Combined-Shape" fill="#000000" opacity="0.5"></path>
            <path d="M4.62238076,25.3615123 L4.61697435,25.3496766 C1.76560434,22.5189766 0,18.596059 0,14.2607625 C0,7.90966532 3.7892501,2.44359495 9.23030166,1.36557432e-14 C10.643904,2.00990295 12.9810762,3.32326246 15.625,3.32326246 C18.2689238,3.32326246 20.606096,2.00990295 22.0196999,7.61839879e-07 C27.4607499,2.44359495 31.25,7.90966532 31.25,14.2607625 C31.25,18.5400954 29.5296853,22.4176272 26.7429051,25.2395088 C19.9699474,30.8569497 15.6562495,39.3363468 15.6562495,48.823262 C15.6562495,49.0406335 15.6585142,49.257476 15.6630212,49.4737673 L15.6504955,49.5011885 C15.6543273,49.3017158 15.6562519,49.1017762 15.6562519,48.901387 C15.6562519,39.4391402 11.3649583,30.9791788 4.62238076,25.3615123 Z" id="Combined-Shape-Copy" fill="url(#linearGradient-1)"></path>
        </g>
    </g>
</svg>